<svg width="171" height="63" viewBox="0 0 171 63" fill="none" xmlns="http://www.w3.org/2000/svg">
<path d="M38.7887 29.9058C39.0107 30.793 38.7332 31.7913 38.0122 32.4569L19.4318 51.0375L10.28 60.1889C9.33731 61.1872 7.8396 61.2982 6.73051 60.5217C5.62123 59.6899 5.23279 58.2478 5.8429 57.0274L15.4936 37.6705L1.90514 33.1225C1.01753 32.8452 0.296503 32.0687 0.0746472 31.1258C-0.147393 30.2385 0.130111 29.2398 0.851142 28.5743L28.5831 0.842282C29.5258 -0.156069 31.0235 -0.266812 32.1326 0.509498C33.2419 1.34164 33.6303 2.7837 33.0202 4.00373L23.3695 23.3606L36.958 27.9087C37.8458 28.1862 38.5668 28.9627 38.7887 29.9058Z" fill="#079992"/>
<path d="M38.012 32.4569L19.4318 51.0375V9.9942L28.5835 0.842465C29.5262 -0.155886 31.0239 -0.266629 32.133 0.509681C33.2423 1.34183 33.6307 2.78389 33.0206 4.00391L23.3699 23.3608L36.9584 27.9089C37.846 28.1862 38.567 28.9627 38.7889 29.9058C39.0107 30.7932 38.733 31.7913 38.012 32.4569Z" fill="#0A3D62"/>
<path d="M60.144 41.7055C60.081 42.1465 60.0495 42.43 60.0495 42.556C60.0495 44.005 60.837 44.7295 62.412 44.7295C63.2625 44.7295 64.1603 44.4775 65.1053 43.9735L66.2393 50.1632C64.4753 51.1712 62.2545 51.6753 59.577 51.6753C56.931 51.6753 54.8205 51.0138 53.2455 49.6908C51.702 48.3677 50.9303 46.525 50.9303 44.1625C50.9303 43.249 51.009 42.4457 51.1665 41.7527L52.8675 33.295H49.0875L50.4578 26.5855H54.1905L55.5135 19.9232H64.491L63.168 26.5855H68.9798L67.6568 33.295H61.845L60.144 41.7055ZM100.809 25.6405L95.7063 51.25H87.2013L87.721 48.8402C85.6735 50.7302 83.2008 51.6753 80.3028 51.6753C78.4128 51.6753 76.633 51.2185 74.9635 50.305C73.3255 49.36 72.0025 48.0055 70.9945 46.2415C69.9865 44.4775 69.4825 42.3985 69.4825 40.0045C69.4825 37.2325 70.0968 34.7282 71.3253 32.4917C72.5853 30.2237 74.2705 28.444 76.381 27.1525C78.523 25.861 80.854 25.2153 83.374 25.2153C87.091 25.2153 89.7055 26.3807 91.2175 28.7117L91.8318 25.6405H100.809ZM83.4213 44.446C85.2168 44.446 86.6815 43.7845 87.8155 42.4615C88.9495 41.1385 89.5165 39.4217 89.5165 37.3112C89.5165 35.7992 89.0755 34.6022 88.1935 33.7202C87.343 32.8382 86.1618 32.3972 84.6498 32.3972C82.8543 32.3972 81.3895 33.0587 80.2555 34.3817C79.1215 35.7047 78.5545 37.4372 78.5545 39.5792C78.5545 41.0912 78.9798 42.2882 79.8303 43.1702C80.7123 44.0207 81.9093 44.446 83.4213 44.446ZM114.527 28.4755C116.669 26.302 119.756 25.2153 123.788 25.2153L122.228 33.295C121.441 33.2005 120.764 33.1532 120.197 33.1532C118.181 33.1532 116.558 33.6415 115.33 34.618C114.133 35.563 113.33 37.075 112.92 39.154L110.463 51.25H101.486L106.589 25.6405H115.094L114.527 28.4755ZM143.226 36.9805L151.826 51.25H141.336L136.092 42.5087L132.406 45.7217L131.319 51.25H122.342L129.335 16.1905H138.312L134.674 34.3817L145.022 25.6405H156.362L143.226 36.9805Z" fill="#0C2461"/>
<path d="M148.48 23.072C147.872 23.072 147.34 22.96 146.884 22.736C146.428 22.504 146.076 22.184 145.828 21.776C145.58 21.36 145.456 20.876 145.456 20.324C145.456 19.612 145.616 18.972 145.936 18.404C146.256 17.836 146.7 17.392 147.268 17.072C147.836 16.744 148.48 16.58 149.2 16.58C150.456 16.58 151.328 17.04 151.816 17.96L150.844 18.5C150.508 17.892 149.932 17.588 149.116 17.588C148.644 17.588 148.216 17.704 147.832 17.936C147.456 18.16 147.16 18.476 146.944 18.884C146.728 19.292 146.62 19.756 146.62 20.276C146.62 20.836 146.784 21.276 147.112 21.596C147.448 21.908 147.92 22.064 148.528 22.064C148.912 22.064 149.268 21.988 149.596 21.836C149.932 21.684 150.208 21.46 150.424 21.164L151.264 21.764C150.968 22.172 150.572 22.492 150.076 22.724C149.58 22.956 149.048 23.072 148.48 23.072ZM161.371 16.58C162.091 16.58 162.651 16.764 163.051 17.132C163.459 17.492 163.663 18.008 163.663 18.68C163.663 18.864 163.635 19.116 163.579 19.436L162.871 23H161.719L162.427 19.436C162.467 19.212 162.487 19.028 162.487 18.884C162.487 18.468 162.371 18.152 162.139 17.936C161.907 17.72 161.555 17.612 161.083 17.612C160.491 17.612 160.003 17.78 159.619 18.116C159.243 18.444 158.987 18.94 158.851 19.604L158.167 23H157.015L157.735 19.436C157.775 19.22 157.795 19.04 157.795 18.896C157.795 18.48 157.675 18.164 157.435 17.948C157.203 17.724 156.851 17.612 156.379 17.612C155.787 17.612 155.299 17.78 154.915 18.116C154.539 18.452 154.283 18.96 154.147 19.64L153.475 23H152.323L153.583 16.64H154.687L154.531 17.432C155.091 16.864 155.827 16.58 156.739 16.58C157.235 16.58 157.659 16.676 158.011 16.868C158.363 17.06 158.619 17.34 158.779 17.708C159.427 16.956 160.291 16.58 161.371 16.58ZM167.007 23.072C166.479 23.072 165.975 23.004 165.495 22.868C165.023 22.732 164.655 22.556 164.391 22.34L164.907 21.428C165.155 21.628 165.475 21.788 165.867 21.908C166.267 22.02 166.683 22.076 167.115 22.076C167.659 22.076 168.071 21.996 168.351 21.836C168.639 21.668 168.783 21.436 168.783 21.14C168.783 20.9 168.667 20.728 168.435 20.624C168.211 20.52 167.859 20.416 167.379 20.312C166.931 20.216 166.563 20.12 166.275 20.024C165.995 19.92 165.755 19.76 165.555 19.544C165.355 19.32 165.255 19.02 165.255 18.644C165.255 18.228 165.371 17.864 165.603 17.552C165.843 17.24 166.179 17 166.611 16.832C167.051 16.664 167.559 16.58 168.135 16.58C168.559 16.58 168.971 16.632 169.371 16.736C169.771 16.84 170.099 16.98 170.355 17.156L169.899 18.068C169.651 17.9 169.363 17.776 169.035 17.696C168.707 17.608 168.371 17.564 168.027 17.564C167.507 17.564 167.107 17.652 166.827 17.828C166.547 17.996 166.407 18.224 166.407 18.512C166.407 18.768 166.523 18.952 166.755 19.064C166.987 19.168 167.347 19.272 167.835 19.376C168.275 19.472 168.635 19.568 168.915 19.664C169.195 19.76 169.431 19.916 169.623 20.132C169.823 20.348 169.923 20.64 169.923 21.008C169.923 21.656 169.655 22.164 169.119 22.532C168.591 22.892 167.887 23.072 167.007 23.072Z" fill="#888888"/>
</svg>
