<svg width="939" height="800" viewBox="0 0 939 800" fill="none" xmlns="http://www.w3.org/2000/svg">
<line y1="-0.5" x2="1134.18" y2="-0.5" transform="matrix(-0.826376 0.563118 -0.651395 -0.758739 938 -1.52588e-05)" stroke="#38ADA9"/>
<line y1="-0.5" x2="1134.18" y2="-0.5" transform="matrix(-0.827031 0.562157 -0.652332 -0.757933 938 23.0591)" stroke="#38ADA9"/>
<line y1="-0.5" x2="1134.18" y2="-0.5" transform="matrix(-0.827031 0.562157 -0.652332 -0.757933 938 46.1183)" stroke="#38ADA9"/>
<line y1="-0.5" x2="1134.18" y2="-0.5" transform="matrix(-0.827031 0.562157 -0.652332 -0.757933 938 69.1775)" stroke="#38ADA9"/>
<line y1="-0.5" x2="1134.18" y2="-0.5" transform="matrix(-0.827031 0.562157 -0.652332 -0.757933 938 92.2366)" stroke="#38ADA9"/>
<line y1="-0.5" x2="1134.18" y2="-0.5" transform="matrix(-0.827031 0.562157 -0.652332 -0.757933 938 115.296)" stroke="#38ADA9"/>
<line y1="-0.5" x2="1134.18" y2="-0.5" transform="matrix(-0.827031 0.562157 -0.652332 -0.757933 938 138.355)" stroke="#38ADA9"/>
<line y1="-0.5" x2="1134.18" y2="-0.5" transform="matrix(-0.827031 0.562157 -0.652332 -0.757933 938 161.414)" stroke="#38ADA9"/>
</svg>
