<svg width="113" height="46" viewBox="0 0 113 46" fill="none" xmlns="http://www.w3.org/2000/svg">
<g filter="url(#filter0_dd)">
<path d="M95.571 16.094C95.1815 16.094 94.8406 16.0222 94.5484 15.8787C94.2563 15.7301 94.0307 15.525 93.8718 15.2636C93.7129 14.9971 93.6335 14.687 93.6335 14.3333C93.6335 13.8771 93.736 13.467 93.941 13.1031C94.1461 12.7392 94.4305 12.4547 94.7945 12.2497C95.1584 12.0395 95.571 11.9344 96.0323 11.9344C96.8371 11.9344 97.3958 12.2292 97.7084 12.8186L97.0857 13.1646C96.8704 12.7751 96.5013 12.5803 95.9785 12.5803C95.6761 12.5803 95.4019 12.6546 95.1558 12.8033C94.9149 12.9468 94.7253 13.1492 94.5869 13.4107C94.4485 13.6721 94.3793 13.9694 94.3793 14.3025C94.3793 14.6613 94.4844 14.9433 94.6945 15.1483C94.9098 15.3482 95.2122 15.4481 95.6018 15.4481C95.8478 15.4481 96.0759 15.3994 96.2861 15.3021C96.5013 15.2047 96.6782 15.0611 96.8166 14.8715L97.3548 15.2559C97.1651 15.5173 96.9114 15.7224 96.5936 15.871C96.2758 16.0197 95.9349 16.094 95.571 16.094ZM103.831 11.9344C104.292 11.9344 104.651 12.0523 104.907 12.2881C105.169 12.5188 105.299 12.8494 105.299 13.2799C105.299 13.3978 105.281 13.5593 105.246 13.7643L104.792 16.0479H104.054L104.507 13.7643C104.533 13.6208 104.546 13.5029 104.546 13.4107C104.546 13.1441 104.472 12.9416 104.323 12.8033C104.174 12.6649 103.949 12.5957 103.646 12.5957C103.267 12.5957 102.954 12.7033 102.708 12.9186C102.467 13.1287 102.303 13.4465 102.216 13.872L101.778 16.0479H101.04L101.501 13.7643C101.527 13.6259 101.54 13.5106 101.54 13.4183C101.54 13.1518 101.463 12.9493 101.309 12.8109C101.16 12.6674 100.935 12.5957 100.632 12.5957C100.253 12.5957 99.9404 12.7033 99.6943 12.9186C99.4534 13.1339 99.2894 13.4593 99.2023 13.895L98.7717 16.0479H98.0336L98.8409 11.9729H99.5482L99.4483 12.4803C99.8071 12.1164 100.279 11.9344 100.863 11.9344C101.181 11.9344 101.452 11.9959 101.678 12.119C101.904 12.242 102.068 12.4214 102.17 12.6572C102.585 12.1753 103.139 11.9344 103.831 11.9344ZM107.442 16.094C107.103 16.094 106.78 16.0504 106.473 15.9633C106.171 15.8761 105.935 15.7634 105.766 15.625L106.096 15.0406C106.255 15.1688 106.46 15.2713 106.711 15.3482C106.968 15.4199 107.234 15.4558 107.511 15.4558C107.859 15.4558 108.123 15.4046 108.303 15.3021C108.487 15.1944 108.58 15.0458 108.58 14.8561C108.58 14.7023 108.505 14.5921 108.357 14.5255C108.213 14.4589 107.988 14.3922 107.68 14.3256C107.393 14.2641 107.157 14.2026 106.973 14.1411C106.793 14.0744 106.64 13.9719 106.511 13.8335C106.383 13.69 106.319 13.4978 106.319 13.2569C106.319 12.9903 106.393 12.7571 106.542 12.5572C106.696 12.3573 106.911 12.2035 107.188 12.0959C107.47 11.9883 107.795 11.9344 108.164 11.9344C108.436 11.9344 108.7 11.9678 108.956 12.0344C109.213 12.101 109.423 12.1907 109.587 12.3035L109.295 12.8878C109.136 12.7802 108.951 12.7007 108.741 12.6495C108.531 12.5931 108.316 12.5649 108.095 12.5649C107.762 12.5649 107.506 12.6213 107.326 12.7341C107.147 12.8417 107.057 12.9878 107.057 13.1723C107.057 13.3363 107.132 13.4542 107.28 13.526C107.429 13.5926 107.66 13.6593 107.972 13.7259C108.254 13.7874 108.485 13.8489 108.664 13.9104C108.844 13.9719 108.995 14.0719 109.118 14.2103C109.246 14.3487 109.31 14.5358 109.31 14.7715C109.31 15.1867 109.138 15.5122 108.795 15.748C108.457 15.9787 108.006 16.094 107.442 16.094Z" fill="#3F4D73"/>
<path d="M27.8526 21.1612C27.9949 21.7296 27.8171 22.3693 27.3551 22.7957L15.4503 34.7007L9.5866 40.5641C8.98259 41.2038 8.02298 41.2749 7.31236 40.7774C6.60163 40.2444 6.35275 39.3205 6.74365 38.5385L12.9271 26.1362L4.22066 23.2222C3.65195 23.0445 3.18997 22.547 3.04783 21.9429C2.90556 21.3744 3.08336 20.7345 3.54534 20.3081L21.3137 2.53967C21.9177 1.9 22.8774 1.82905 23.588 2.32644C24.2987 2.85962 24.5476 3.78357 24.1567 4.56526L17.9733 16.9676L26.6797 19.8816C27.2485 20.0594 27.7105 20.5569 27.8526 21.1612Z" fill="#5352ED"/>
<path d="M27.3549 22.7959L15.4502 34.7008V8.4036L21.3139 2.53991C21.9179 1.90025 22.8775 1.82929 23.5881 2.32669C24.2989 2.85986 24.5477 3.78382 24.1568 4.56551L17.9734 16.9678L26.6798 19.8819C27.2485 20.0595 27.7105 20.5571 27.8526 21.1613C27.9948 21.7299 27.8169 22.3694 27.3549 22.7959Z" fill="#5352ED"/>
<path d="M38.3917 28.7289C38.3514 29.0115 38.3312 29.1931 38.3312 29.2738C38.3312 30.2022 38.8358 30.6664 39.8449 30.6664C40.3898 30.6664 40.965 30.505 41.5705 30.182L42.2971 34.1479C41.1668 34.7938 39.744 35.1167 38.0284 35.1167C36.3331 35.1167 34.9809 34.6929 33.9717 33.8452C32.9828 32.9975 32.4883 31.8168 32.4883 30.3031C32.4883 29.7178 32.5388 29.2032 32.6397 28.7592L33.7295 23.3401H31.3076L32.1856 19.0412H34.5772L35.4249 14.7726H41.1769L40.3293 19.0412H44.053L43.2053 23.3401H39.4816L38.3917 28.7289ZM64.4467 18.4358L61.1771 34.8442H55.7278L56.0608 33.3003C54.749 34.5112 53.1646 35.1167 51.3078 35.1167C50.0969 35.1167 48.9566 34.8241 47.8869 34.2388C46.8374 33.6333 45.9897 32.7654 45.3439 31.6352C44.698 30.505 44.3751 29.1729 44.3751 27.639C44.3751 25.863 44.7687 24.2584 45.5558 22.8255C46.3631 21.3723 47.4429 20.232 48.7951 19.4045C50.1675 18.577 51.661 18.1633 53.2756 18.1633C55.6572 18.1633 57.3323 18.91 58.3011 20.4036L58.6947 18.4358H64.4467ZM53.3059 30.4848C54.4563 30.4848 55.3948 30.061 56.1214 29.2133C56.848 28.3656 57.2113 27.2657 57.2113 25.9134C57.2113 24.9447 56.9287 24.1777 56.3636 23.6126C55.8187 23.0475 55.0618 22.7649 54.093 22.7649C52.9426 22.7649 52.0041 23.1888 51.2776 24.0364C50.551 24.8841 50.1877 25.9942 50.1877 27.3666C50.1877 28.3353 50.4602 29.1023 51.0051 29.6674C51.5702 30.2123 52.3371 30.4848 53.3059 30.4848ZM73.2356 20.2522C74.6081 18.8596 76.586 18.1633 79.1693 18.1633L78.1703 23.3401C77.6657 23.2796 77.2318 23.2493 76.8685 23.2493C75.5768 23.2493 74.5374 23.5621 73.7503 24.1878C72.9834 24.7933 72.4687 25.7621 72.2063 27.0941L70.6321 34.8442H64.88L68.1496 18.4358H73.5989L73.2356 20.2522ZM91.6242 25.7015L97.1341 34.8442H90.4133L87.0529 29.2436L84.6915 31.3022L83.9952 34.8442H78.2431L82.7237 12.381H88.4757L86.1446 24.0364L92.7746 18.4358H100.04L91.6242 25.7015Z" fill="#5352ED"/>
</g>
<defs>
<filter id="filter0_dd" x="0.437126" y="0.718563" width="112.126" height="46.6123" filterUnits="userSpaceOnUse" color-interpolation-filters="sRGB">
<feFlood flood-opacity="0" result="BackgroundImageFix"/>
<feColorMatrix in="SourceAlpha" type="matrix" values="0 0 0 0 0 0 0 0 0 0 0 0 0 0 0 0 0 0 127 0"/>
<feOffset dy="1.28144"/>
<feGaussianBlur stdDeviation="1.28144"/>
<feColorMatrix type="matrix" values="0 0 0 0 0 0 0 0 0 0 0 0 0 0 0 0 0 0 0.14 0"/>
<feBlend mode="normal" in2="BackgroundImageFix" result="effect1_dropShadow"/>
<feColorMatrix in="SourceAlpha" type="matrix" values="0 0 0 0 0 0 0 0 0 0 0 0 0 0 0 0 0 0 127 0"/>
<feOffset dy="1.92216"/>
<feGaussianBlur stdDeviation="1.28144"/>
<feColorMatrix type="matrix" values="0 0 0 0 0 0 0 0 0 0 0 0 0 0 0 0 0 0 0.12 0"/>
<feBlend mode="normal" in2="effect1_dropShadow" result="effect2_dropShadow"/>
<feBlend mode="normal" in="SourceGraphic" in2="effect2_dropShadow" result="shape"/>
</filter>
</defs>
</svg>
