<svg width="167" height="64" viewBox="0 0 167 64" fill="none" xmlns="http://www.w3.org/2000/svg">
<path d="M144.48 23.072C143.872 23.072 143.34 22.96 142.884 22.736C142.428 22.504 142.076 22.184 141.828 21.776C141.58 21.36 141.456 20.876 141.456 20.324C141.456 19.612 141.616 18.972 141.936 18.404C142.256 17.836 142.7 17.392 143.268 17.072C143.836 16.744 144.48 16.58 145.2 16.58C146.456 16.58 147.328 17.04 147.816 17.96L146.844 18.5C146.508 17.892 145.932 17.588 145.116 17.588C144.644 17.588 144.216 17.704 143.832 17.936C143.456 18.16 143.16 18.476 142.944 18.884C142.728 19.292 142.62 19.756 142.62 20.276C142.62 20.836 142.784 21.276 143.112 21.596C143.448 21.908 143.92 22.064 144.528 22.064C144.912 22.064 145.268 21.988 145.596 21.836C145.932 21.684 146.208 21.46 146.424 21.164L147.264 21.764C146.968 22.172 146.572 22.492 146.076 22.724C145.58 22.956 145.048 23.072 144.48 23.072ZM157.371 16.58C158.091 16.58 158.651 16.764 159.051 17.132C159.459 17.492 159.663 18.008 159.663 18.68C159.663 18.864 159.635 19.116 159.579 19.436L158.871 23H157.719L158.427 19.436C158.467 19.212 158.487 19.028 158.487 18.884C158.487 18.468 158.371 18.152 158.139 17.936C157.907 17.72 157.555 17.612 157.083 17.612C156.491 17.612 156.003 17.78 155.619 18.116C155.243 18.444 154.987 18.94 154.851 19.604L154.167 23H153.015L153.735 19.436C153.775 19.22 153.795 19.04 153.795 18.896C153.795 18.48 153.675 18.164 153.435 17.948C153.203 17.724 152.851 17.612 152.379 17.612C151.787 17.612 151.299 17.78 150.915 18.116C150.539 18.452 150.283 18.96 150.147 19.64L149.475 23H148.323L149.583 16.64H150.687L150.531 17.432C151.091 16.864 151.827 16.58 152.739 16.58C153.235 16.58 153.659 16.676 154.011 16.868C154.363 17.06 154.619 17.34 154.779 17.708C155.427 16.956 156.291 16.58 157.371 16.58ZM163.007 23.072C162.479 23.072 161.975 23.004 161.495 22.868C161.023 22.732 160.655 22.556 160.391 22.34L160.907 21.428C161.155 21.628 161.475 21.788 161.867 21.908C162.267 22.02 162.683 22.076 163.115 22.076C163.659 22.076 164.071 21.996 164.351 21.836C164.639 21.668 164.783 21.436 164.783 21.14C164.783 20.9 164.667 20.728 164.435 20.624C164.211 20.52 163.859 20.416 163.379 20.312C162.931 20.216 162.563 20.12 162.275 20.024C161.995 19.92 161.755 19.76 161.555 19.544C161.355 19.32 161.255 19.02 161.255 18.644C161.255 18.228 161.371 17.864 161.603 17.552C161.843 17.24 162.179 17 162.611 16.832C163.051 16.664 163.559 16.58 164.135 16.58C164.559 16.58 164.971 16.632 165.371 16.736C165.771 16.84 166.099 16.98 166.355 17.156L165.899 18.068C165.651 17.9 165.363 17.776 165.035 17.696C164.707 17.608 164.371 17.564 164.027 17.564C163.507 17.564 163.107 17.652 162.827 17.828C162.547 17.996 162.407 18.224 162.407 18.512C162.407 18.768 162.523 18.952 162.755 19.064C162.987 19.168 163.347 19.272 163.835 19.376C164.275 19.472 164.635 19.568 164.915 19.664C165.195 19.76 165.431 19.916 165.623 20.132C165.823 20.348 165.923 20.64 165.923 21.008C165.923 21.656 165.655 22.164 165.119 22.532C164.591 22.892 163.887 23.072 163.007 23.072Z" fill="#98A2AF"/>
<path d="M38.7887 29.9058C39.0107 30.793 38.7332 31.7913 38.0122 32.4569L19.4318 51.0375L10.28 60.1889C9.33731 61.1872 7.8396 61.2982 6.73051 60.5217C5.62123 59.6899 5.23279 58.2478 5.8429 57.0274L15.4936 37.6705L1.90514 33.1225C1.01753 32.8452 0.296503 32.0687 0.0746472 31.1258C-0.147393 30.2385 0.130111 29.2398 0.851142 28.5743L28.5831 0.842282C29.5258 -0.156069 31.0235 -0.266812 32.1326 0.509498C33.2419 1.34164 33.6303 2.7837 33.0202 4.00373L23.3695 23.3606L36.958 27.9087C37.8458 28.1862 38.5668 28.9627 38.7887 29.9058Z" fill="#1BC2E7"/>
<path d="M38.0119 32.4569L19.4316 51.0375V9.99414L28.5834 0.842404C29.5261 -0.155947 31.0238 -0.26669 32.1329 0.50962C33.2422 1.34176 33.6306 2.78383 33.0205 4.00385L23.3698 23.3608L36.9582 27.9088C37.8459 28.1861 38.5669 28.9626 38.7887 29.9057C39.0106 30.7931 38.7329 31.7913 38.0119 32.4569Z" fill="#2954C0"/>
<path d="M55.2378 42.4555C55.1748 42.8965 55.1432 43.18 55.1432 43.306C55.1432 44.755 55.9308 45.4795 57.5058 45.4795C58.3563 45.4795 59.254 45.2275 60.199 44.7235L61.333 50.9132C59.569 51.9212 57.3483 52.4253 54.6708 52.4253C52.0248 52.4253 49.9143 51.7638 48.3393 50.4408C46.7958 49.1177 46.024 47.275 46.024 44.9125C46.024 43.999 46.1028 43.1957 46.2603 42.5027L47.9613 34.045H44.1813L45.5515 27.3355H49.2843L50.6073 20.6732H59.5848L58.2618 27.3355H64.0735L62.7505 34.045H56.9388L55.2378 42.4555ZM95.903 26.3905L90.8 52H82.295L82.8148 49.5902C80.7673 51.4802 78.2945 52.4253 75.3965 52.4253C73.5065 52.4253 71.7268 51.9685 70.0573 51.055C68.4193 50.11 67.0963 48.7555 66.0883 46.9915C65.0803 45.2275 64.5763 43.1485 64.5763 40.7545C64.5763 37.9825 65.1905 35.4782 66.419 33.2417C67.679 30.9737 69.3643 29.194 71.4748 27.9025C73.6168 26.611 75.9478 25.9653 78.4678 25.9653C82.1848 25.9653 84.7993 27.1307 86.3113 29.4617L86.9255 26.3905H95.903ZM78.515 45.196C80.3105 45.196 81.7753 44.5345 82.9093 43.2115C84.0433 41.8885 84.6103 40.1717 84.6103 38.0612C84.6103 36.5492 84.1693 35.3522 83.2873 34.4702C82.4368 33.5882 81.2555 33.1472 79.7435 33.1472C77.948 33.1472 76.4833 33.8087 75.3493 35.1317C74.2153 36.4547 73.6483 38.1872 73.6483 40.3292C73.6483 41.8412 74.0735 43.0382 74.924 43.9202C75.806 44.7707 77.003 45.196 78.515 45.196ZM109.62 29.2255C111.762 27.052 114.849 25.9653 118.881 25.9653L117.322 34.045C116.535 33.9505 115.857 33.9032 115.29 33.9032C113.274 33.9032 111.652 34.3915 110.424 35.368C109.227 36.313 108.423 37.825 108.014 39.904L105.557 52H96.5793L101.682 26.3905H110.187L109.62 29.2255ZM138.32 37.7305L146.92 52H136.43L131.185 43.2587L127.5 46.4717L126.413 52H117.436L124.429 16.9405H133.406L129.768 35.1317L140.116 26.3905H151.456L138.32 37.7305Z" fill="url(#paint0_linear)"/>
<defs>
<linearGradient id="paint0_linear" x1="34.263" y1="-28.1687" x2="128.615" y2="31.2875" gradientUnits="userSpaceOnUse">
<stop offset="0.232165" stop-color="#5628EE"/>
<stop offset="1" stop-color="#079992"/>
</linearGradient>
</defs>
</svg>
